<svg xmlns="http://www.w3.org/2000/svg" width="284" height="314" viewBox="0 0 284 314" font-family="'SFMono-Regular', 'JetBrains Mono', 'Fira Code', 'Cascadia Code', Menlo, Consolas, 'DejaVu Sans Mono', monospace" font-size="13.5"><rect x="0" y="0" width="284" height="314" rx="9.0" fill="#002b36"/><path d="M0 9.0 Q0 0 9.0 0 H275.0 Q284 0 284 9.0 V34 H0 Z" fill="#073642"/><circle cx="18" cy="17" r="6" fill="#dc322f"/><circle cx="38" cy="17" r="6" fill="#b58900"/><circle cx="58" cy="17" r="6" fill="#859900"/><text x="142" y="21" text-anchor="middle" fill="#657b83" font-size="12">list</text><rect x="16.0" y="48.0" width="109.2" height="18.0" fill="#268bd2"/><text y="63.0" xml:space="preserve"><tspan x="16.0" textLength="109.2" fill="#fdf6e3" font-weight="bold"> Punctuation </tspan></text><text y="81.0" xml:space="preserve"><tspan x="16.0" textLength="109.2" fill="#839496">  Interrobang</tspan></text><text y="99.0" xml:space="preserve"><tspan x="16.0" textLength="16.8" fill="#839496">  </tspan><tspan x="32.8" textLength="235.2" fill="#657b83">‽  asks and exclaims at once</tspan></text><text y="117.0" xml:space="preserve"><tspan x="16.0" textLength="159.6" fill="#839496">  Exclamation point</tspan></text><text y="135.0" xml:space="preserve"><tspan x="16.0" textLength="16.8" fill="#839496">  </tspan><tspan x="32.8" textLength="176.4" fill="#657b83">!  emphatic and eager</tspan></text><text y="153.0" xml:space="preserve"><tspan x="16.0" textLength="16.8" fill="#839496">&gt; </tspan><tspan x="32.8" textLength="109.2" fill="#cb4b16" font-weight="bold">Question mark</tspan></text><text y="171.0" xml:space="preserve"><tspan x="16.0" textLength="16.8" fill="#839496">  </tspan><tspan x="32.8" textLength="201.6" fill="#657b83">?  curious and uncertain</tspan></text><text y="189.0" xml:space="preserve"><tspan x="16.0" textLength="75.6" fill="#839496">  Em dash</tspan></text><text y="207.0" xml:space="preserve"><tspan x="16.0" textLength="16.8" fill="#839496">  </tspan><tspan x="32.8" textLength="151.2" fill="#657b83">—  an abrupt aside</tspan></text><text y="225.0" xml:space="preserve"><tspan x="16.0" textLength="84.0" fill="#839496">  Ellipsis</tspan></text><text y="243.0" xml:space="preserve"><tspan x="16.0" textLength="16.8" fill="#839496">  </tspan><tspan x="32.8" textLength="142.8" fill="#657b83">…  a trailing off</tspan></text><text y="261.0" xml:space="preserve"><tspan x="16.0" textLength="92.4" fill="#839496">  Semicolon</tspan></text><text y="279.0" xml:space="preserve"><tspan x="16.0" textLength="16.8" fill="#839496">  </tspan><tspan x="32.8" textLength="235.2" fill="#657b83">;  joins two related clauses</tspan></text><text y="297.0" xml:space="preserve"><tspan x="16.0" textLength="109.2" fill="#657b83">6 items · 3/6</tspan></text></svg>