<svg xmlns="http://www.w3.org/2000/svg" width="158" height="278" viewBox="0 0 158 278" font-family="'SFMono-Regular', 'JetBrains Mono', 'Fira Code', 'Cascadia Code', Menlo, Consolas, 'DejaVu Sans Mono', monospace" font-size="13.5"><rect x="0" y="0" width="158" height="278" rx="9.0" fill="#002b36"/><path d="M0 9.0 Q0 0 9.0 0 H149.0 Q158 0 158 9.0 V34 H0 Z" fill="#073642"/><circle cx="18" cy="17" r="6" fill="#dc322f"/><circle cx="38" cy="17" r="6" fill="#b58900"/><circle cx="58" cy="17" r="6" fill="#859900"/><text x="79" y="21" text-anchor="middle" fill="#657b83" font-size="12">paginator</text><text y="63.0" xml:space="preserve"><tspan x="16.0" textLength="126.0" fill="#268bd2" font-weight="bold">Paginated items</tspan></text><text y="99.0" xml:space="preserve"><tspan x="16.0" textLength="84.0" fill="#839496">  Item #09</tspan></text><text y="117.0" xml:space="preserve"><tspan x="16.0" textLength="84.0" fill="#839496">  Item #10</tspan></text><text y="135.0" xml:space="preserve"><tspan x="16.0" textLength="84.0" fill="#839496">  Item #11</tspan></text><text y="153.0" xml:space="preserve"><tspan x="16.0" textLength="84.0" fill="#839496">  Item #12</tspan></text><text y="171.0" xml:space="preserve"><tspan x="16.0" textLength="84.0" fill="#839496">  Item #13</tspan></text><text y="189.0" xml:space="preserve"><tspan x="16.0" textLength="84.0" fill="#839496">  Item #14</tspan></text><text y="207.0" xml:space="preserve"><tspan x="16.0" textLength="84.0" fill="#839496">  Item #15</tspan></text><text y="225.0" xml:space="preserve"><tspan x="16.0" textLength="84.0" fill="#839496">  Item #16</tspan></text><text y="261.0" xml:space="preserve"><tspan x="16.0" textLength="16.8" fill="#839496">  </tspan><tspan x="32.8" textLength="8.4" fill="#657b83">○</tspan><tspan x="41.2" textLength="8.4" fill="#839496"> </tspan><tspan x="49.6" textLength="8.4" fill="#268bd2">●</tspan><tspan x="58.0" textLength="8.4" fill="#839496"> </tspan><tspan x="66.4" textLength="8.4" fill="#657b83">○</tspan><tspan x="74.8" textLength="8.4" fill="#839496"> </tspan><tspan x="83.2" textLength="8.4" fill="#657b83">○</tspan><tspan x="91.6" textLength="8.4" fill="#839496"> </tspan><tspan x="100.0" textLength="8.4" fill="#657b83">○</tspan><tspan x="108.4" textLength="8.4" fill="#839496"> </tspan><tspan x="116.8" textLength="8.4" fill="#657b83">○</tspan></text></svg>