<svg xmlns="http://www.w3.org/2000/svg" width="234" height="224" viewBox="0 0 234 224" font-family="'SFMono-Regular', 'JetBrains Mono', 'Fira Code', 'Cascadia Code', Menlo, Consolas, 'DejaVu Sans Mono', monospace" font-size="13.5"><rect x="0" y="0" width="234" height="224" rx="9.0" fill="#16161e"/><path d="M0 9.0 Q0 0 9.0 0 H225.0 Q234 0 234 9.0 V34 H0 Z" fill="#22232f"/><circle cx="18" cy="17" r="6" fill="#ff5f56"/><circle cx="38" cy="17" r="6" fill="#febc2e"/><circle cx="58" cy="17" r="6" fill="#28c840"/><text x="117" y="21" text-anchor="middle" fill="#8a8a8a" font-size="12">Neon</text><rect x="16.0" y="48.0" width="67.2" height="18.0" fill="#7d56f4"/><text y="63.0" xml:space="preserve"><tspan x="16.0" textLength="67.2" fill="#fafafa" font-weight="bold">  Neon  </tspan></text><text y="99.0" xml:space="preserve"><tspan x="16.0" textLength="8.4" fill="#ee6ff8">⠹</tspan><tspan x="24.4" textLength="193.2" fill="#c0caf5"> loading...            </tspan></text><text y="117.0" xml:space="preserve"><tspan x="16.0" textLength="201.6" fill="#c0caf5">                        </tspan></text><text y="135.0" xml:space="preserve"><tspan x="16.0" textLength="8.4" fill="#ff7ccb">█</tspan><tspan x="24.4" textLength="8.4" fill="#ff83c8">█</tspan><tspan x="32.8" textLength="8.4" fill="#ff8ac4">█</tspan><tspan x="41.2" textLength="8.4" fill="#ff91c1">█</tspan><tspan x="49.6" textLength="8.4" fill="#ff98be">█</tspan><tspan x="58.0" textLength="8.4" fill="#fe9eba">█</tspan><tspan x="66.4" textLength="8.4" fill="#fea5b7">█</tspan><tspan x="74.8" textLength="8.4" fill="#feacb4">█</tspan><tspan x="83.2" textLength="8.4" fill="#feb3b0">█</tspan><tspan x="91.6" textLength="8.4" fill="#febaad">█</tspan><tspan x="100.0" textLength="8.4" fill="#fec1aa">█</tspan><tspan x="108.4" textLength="8.4" fill="#fec8a7">█</tspan><tspan x="116.8" textLength="67.2" fill="#8a8a8a">░░░░░░░░</tspan><tspan x="184.0" textLength="33.6" fill="#8a8a8a"> 60%</tspan></text><text y="153.0" xml:space="preserve"><tspan x="16.0" textLength="201.6" fill="#c0caf5">                        </tspan></text><text y="171.0" xml:space="preserve"><tspan x="16.0" textLength="201.6" fill="#c0caf5">  Alpha                 </tspan></text><text y="189.0" xml:space="preserve"><tspan x="16.0" textLength="16.8" fill="#c0caf5">&gt; </tspan><tspan x="32.8" textLength="33.6" fill="#ee6ff8" font-weight="bold">Beta</tspan><tspan x="66.4" textLength="151.2" fill="#c0caf5">                  </tspan></text><text y="207.0" xml:space="preserve"><tspan x="16.0" textLength="201.6" fill="#c0caf5">  Gamma                 </tspan></text></svg>