<svg xmlns="http://www.w3.org/2000/svg" width="234" height="224" viewBox="0 0 234 224" font-family="'SFMono-Regular', 'JetBrains Mono', 'Fira Code', 'Cascadia Code', Menlo, Consolas, 'DejaVu Sans Mono', monospace" font-size="13.5"><rect x="0" y="0" width="234" height="224" rx="9.0" fill="#002b36"/><path d="M0 9.0 Q0 0 9.0 0 H225.0 Q234 0 234 9.0 V34 H0 Z" fill="#073642"/><circle cx="18" cy="17" r="6" fill="#dc322f"/><circle cx="38" cy="17" r="6" fill="#b58900"/><circle cx="58" cy="17" r="6" fill="#859900"/><text x="117" y="21" text-anchor="middle" fill="#657b83" font-size="12">Solarized Dark</text><rect x="16.0" y="48.0" width="151.2" height="18.0" fill="#268bd2"/><text y="63.0" xml:space="preserve"><tspan x="16.0" textLength="151.2" fill="#fdf6e3" font-weight="bold">  Solarized Dark  </tspan></text><text y="99.0" xml:space="preserve"><tspan x="16.0" textLength="8.4" fill="#d33682">⠹</tspan><tspan x="24.4" textLength="193.2" fill="#839496"> loading...            </tspan></text><text y="117.0" xml:space="preserve"><tspan x="16.0" textLength="201.6" fill="#839496">                        </tspan></text><text y="135.0" xml:space="preserve"><tspan x="16.0" textLength="8.4" fill="#268bd2">█</tspan><tspan x="24.4" textLength="8.4" fill="#2b8cc7">█</tspan><tspan x="32.8" textLength="8.4" fill="#308cbc">█</tspan><tspan x="41.2" textLength="8.4" fill="#358db1">█</tspan><tspan x="49.6" textLength="8.4" fill="#3a8ea6">█</tspan><tspan x="58.0" textLength="8.4" fill="#3f8f9b">█</tspan><tspan x="66.4" textLength="8.4" fill="#448f90">█</tspan><tspan x="74.8" textLength="8.4" fill="#499085">█</tspan><tspan x="83.2" textLength="8.4" fill="#4e917a">█</tspan><tspan x="91.6" textLength="8.4" fill="#53926f">█</tspan><tspan x="100.0" textLength="8.4" fill="#589263">█</tspan><tspan x="108.4" textLength="8.4" fill="#5d9358">█</tspan><tspan x="116.8" textLength="67.2" fill="#657b83">░░░░░░░░</tspan><tspan x="184.0" textLength="33.6" fill="#657b83"> 60%</tspan></text><text y="153.0" xml:space="preserve"><tspan x="16.0" textLength="201.6" fill="#839496">                        </tspan></text><text y="171.0" xml:space="preserve"><tspan x="16.0" textLength="201.6" fill="#839496">  Alpha                 </tspan></text><text y="189.0" xml:space="preserve"><tspan x="16.0" textLength="16.8" fill="#839496">&gt; </tspan><tspan x="32.8" textLength="33.6" fill="#d33682" font-weight="bold">Beta</tspan><tspan x="66.4" textLength="151.2" fill="#839496">                  </tspan></text><text y="207.0" xml:space="preserve"><tspan x="16.0" textLength="201.6" fill="#839496">  Gamma                 </tspan></text></svg>